HIERARCHY
ROOT Hips
{
	OFFSET 0.053599 88.859886 3.107447
	CHANNELS 6 Xposition Yposition Zposition Zrotation Yrotation Xrotation 
	JOINT Spine
	{
		OFFSET -0.000000 8.814246 -2.080107
		CHANNELS 3 Zrotation Yrotation Xrotation
		JOINT Spine1
		{
			OFFSET 0.000000 8.844141 0.000000
			CHANNELS 3 Zrotation Yrotation Xrotation
			JOINT Spine2
			{
				OFFSET -0.000000 11.682268 0.000000
				CHANNELS 3 Zrotation Yrotation Xrotation
				JOINT Spine3
				{
					OFFSET 0.000000 11.746700 0.000000
					CHANNELS 3 Zrotation Yrotation Xrotation
					JOINT Neck
					{
						OFFSET -0.000000 17.658264 -0.000000
						CHANNELS 3 Zrotation Yrotation Xrotation
						JOINT Neck1
						{
							OFFSET -0.000000 5.101515 -0.000000
							CHANNELS 3 Zrotation Yrotation Xrotation
							JOINT Head
							{
								OFFSET 0.000000 5.101515 0.000000
								CHANNELS 3 Zrotation Yrotation Xrotation
								JOINT HeadEnd
								{
									OFFSET 0.000000 11.655085 0.000000
									CHANNELS 3 Zrotation Yrotation Xrotation
									End Site
									{
										OFFSET 0.000000 0.000000 0.000000
									}
								}
							}
						}
					}
					JOINT RightShoulder
					{
						OFFSET -2.625389 11.175210 0.000000
						CHANNELS 3 Zrotation Yrotation Xrotation
						JOINT RightArm
						{
							OFFSET -0.000000 10.434715 -0.000000
							CHANNELS 3 Zrotation Yrotation Xrotation
							JOINT RightForeArm
							{
								OFFSET -0.000000 29.628420 0.000000
								CHANNELS 3 Zrotation Yrotation Xrotation
								JOINT RightHand
								{
									OFFSET -0.000000 22.857611 0.000000
									CHANNELS 3 Zrotation Yrotation Xrotation
									JOINT RightHandThumb1
									{
										OFFSET -2.867323 3.959563 2.944291
										CHANNELS 3 Zrotation Yrotation Xrotation
										JOINT RightHandThumb2
										{
											OFFSET 0.000000 3.350399 0.000000
											CHANNELS 3 Zrotation Yrotation Xrotation
											JOINT RightHandThumb3
											{
												OFFSET 0.000000 3.756509 -0.000000
												CHANNELS 3 Zrotation Yrotation Xrotation
												JOINT RightHandThumb4
												{
													OFFSET 0.000000 3.147345 0.000000
													CHANNELS 3 Zrotation Yrotation Xrotation
													End Site
													{
														OFFSET 0.000000 0.000000 0.000000
													}
												}
											}
										}
									}
									JOINT RightHandIndex1
									{
										OFFSET -0.086752 10.030893 2.345280
										CHANNELS 3 Zrotation Yrotation Xrotation
										JOINT RightHandIndex2
										{
											OFFSET -0.000000 4.061090 0.000000
											CHANNELS 3 Zrotation Yrotation Xrotation
											JOINT RightHandIndex3
											{
												OFFSET -0.000000 3.248873 0.000000
												CHANNELS 3 Zrotation Yrotation Xrotation
												JOINT RightHandIndex4
												{
													OFFSET 0.000000 2.639709 -0.000000
													CHANNELS 3 Zrotation Yrotation Xrotation
													End Site
													{
														OFFSET 0.000000 0.000000 0.000000
													}
												}
											}
										}
									}
									JOINT RightHandMiddle1
									{
										OFFSET 0.104102 9.502952 0.006768
										CHANNELS 3 Zrotation Yrotation Xrotation
										JOINT RightHandMiddle2
										{
											OFFSET 0.000000 4.568727 0.000000
											CHANNELS 3 Zrotation Yrotation Xrotation
											JOINT RightHandMiddle3
											{
												OFFSET 0.000000 3.654981 -0.000000
												CHANNELS 3 Zrotation Yrotation Xrotation
												JOINT RightHandMiddle4
												{
													OFFSET -0.000000 2.741236 -0.000000
													CHANNELS 3 Zrotation Yrotation Xrotation
													End Site
													{
														OFFSET 0.000000 0.000000 0.000000
													}
												}
											}
										}
									}
									JOINT RightHandRing1
									{
										OFFSET 0.086752 8.921708 -2.267442
										CHANNELS 3 Zrotation Yrotation Xrotation
										JOINT RightHandRing2
										{
											OFFSET -0.000000 4.061090 0.000000
											CHANNELS 3 Zrotation Yrotation Xrotation
											JOINT RightHandRing3
											{
												OFFSET 0.000000 3.654981 -0.000000
												CHANNELS 3 Zrotation Yrotation Xrotation
												JOINT RightHandRing4
												{
													OFFSET 0.000000 2.741236 -0.000000
													CHANNELS 3 Zrotation Yrotation Xrotation
													End Site
													{
														OFFSET 0.000000 0.000000 0.000000
													}
												}
											}
										}
									}
									JOINT RightHandPinky1
									{
										OFFSET -0.173504 7.976997 -4.467199
										CHANNELS 3 Zrotation Yrotation Xrotation
										JOINT RightHandPinky2
										{
											OFFSET 0.000000 3.350399 -0.000000
											CHANNELS 3 Zrotation Yrotation Xrotation
											JOINT RightHandPinky3
											{
												OFFSET -0.000000 2.842763 0.000000
												CHANNELS 3 Zrotation Yrotation Xrotation
												JOINT RightHandPinky4
												{
													OFFSET -0.000000 2.639709 0.000000
													CHANNELS 3 Zrotation Yrotation Xrotation
													End Site
													{
														OFFSET 0.000000 0.000000 0.000000
													}
												}
											}
										}
									}
									JOINT RightForeArmEnd
									{
										OFFSET 0.000000 0.000000 0.000000
										CHANNELS 3 Zrotation Yrotation Xrotation
										End Site
										{
											OFFSET 0.000000 0.000000 0.000000
										}
									}
								}
								JOINT RightArmEnd
								{
									OFFSET 0.000000 0.000000 0.000000
									CHANNELS 3 Zrotation Yrotation Xrotation
									End Site
									{
										OFFSET 0.000000 0.000000 0.000000
									}
								}
							}
						}
					}
					JOINT LeftShoulder
					{
						OFFSET 2.625389 11.175210 0.000000
						CHANNELS 3 Zrotation Yrotation Xrotation
						JOINT LeftArm
						{
							OFFSET 0.000000 10.813635 -0.000000
							CHANNELS 3 Zrotation Yrotation Xrotation
							JOINT LeftForeArm
							{
								OFFSET 0.000000 28.724781 0.000000
								CHANNELS 3 Zrotation Yrotation Xrotation
								JOINT LeftHand
								{
									OFFSET 0.644384 25.716167 -0.328871
									CHANNELS 3 Zrotation Yrotation Xrotation
									JOINT LeftHandThumb1
									{
										OFFSET 2.867323 3.959563 2.944291
										CHANNELS 3 Zrotation Yrotation Xrotation
										JOINT LeftHandThumb2
										{
											OFFSET 0.000000 3.350399 0.000000
											CHANNELS 3 Zrotation Yrotation Xrotation
											JOINT LeftHandThumb3
											{
												OFFSET -0.000000 3.756509 0.000000
												CHANNELS 3 Zrotation Yrotation Xrotation
												JOINT LeftHandThumb4
												{
													OFFSET -0.000000 3.100000 0.000000
													CHANNELS 3 Zrotation Yrotation Xrotation
													End Site
													{
														OFFSET 0.000000 0.000000 0.000000
													}
												}
											}
										}
									}
									JOINT LeftHandIndex1
									{
										OFFSET 0.086752 10.030893 2.345280
										CHANNELS 3 Zrotation Yrotation Xrotation
										JOINT LeftHandIndex2
										{
											OFFSET -0.000000 4.061090 -0.000000
											CHANNELS 3 Zrotation Yrotation Xrotation
											JOINT LeftHandIndex3
											{
												OFFSET 0.000000 3.248873 -0.000000
												CHANNELS 3 Zrotation Yrotation Xrotation
												JOINT LeftHandIndex4
												{
													OFFSET 0.000000 2.639709 -0.000000
													CHANNELS 3 Zrotation Yrotation Xrotation
													End Site
													{
														OFFSET 0.000000 0.000000 0.000000
													}
												}
											}
										}
									}
									JOINT LeftHandMiddle1
									{
										OFFSET -0.104102 9.502952 0.006768
										CHANNELS 3 Zrotation Yrotation Xrotation
										JOINT LeftHandMiddle2
										{
											OFFSET -0.000000 4.568727 -0.000000
											CHANNELS 3 Zrotation Yrotation Xrotation
											JOINT LeftHandMiddle3
											{
												OFFSET 0.000000 3.654981 0.000000
												CHANNELS 3 Zrotation Yrotation Xrotation
												JOINT LeftHandMiddle4
												{
													OFFSET 0.000000 2.741236 -0.000000
													CHANNELS 3 Zrotation Yrotation Xrotation
													End Site
													{
														OFFSET 0.000000 0.000000 0.000000
													}
												}
											}
										}
									}
									JOINT LeftHandRing1
									{
										OFFSET -0.086752 8.921708 -2.267442
										CHANNELS 3 Zrotation Yrotation Xrotation
										JOINT LeftHandRing2
										{
											OFFSET 0.000000 4.061090 0.000000
											CHANNELS 3 Zrotation Yrotation Xrotation
											JOINT LeftHandRing3
											{
												OFFSET 0.000000 3.654981 0.000000
												CHANNELS 3 Zrotation Yrotation Xrotation
												JOINT LeftHandRing4
												{
													OFFSET 0.000000 2.741236 0.000000
													CHANNELS 3 Zrotation Yrotation Xrotation
													End Site
													{
														OFFSET 0.000000 0.000000 0.000000
													}
												}
											}
										}
									}
									JOINT LeftHandPinky1
									{
										OFFSET 0.173504 7.976997 -4.467199
										CHANNELS 3 Zrotation Yrotation Xrotation
										JOINT LeftHandPinky2
										{
											OFFSET -0.000000 3.350399 -0.000000
											CHANNELS 3 Zrotation Yrotation Xrotation
											JOINT LeftHandPinky3
											{
												OFFSET 0.000000 2.842763 0.000000
												CHANNELS 3 Zrotation Yrotation Xrotation
												JOINT LeftHandPinky4
												{
													OFFSET -0.000000 2.639709 -0.000000
													CHANNELS 3 Zrotation Yrotation Xrotation
													End Site
													{
														OFFSET 0.000000 0.000000 0.000000
													}
												}
											}
										}
									}
									JOINT LeftForeArmEnd
									{
										OFFSET 0.000000 0.000000 0.000000
										CHANNELS 3 Zrotation Yrotation Xrotation
										End Site
										{
											OFFSET 0.000000 0.000000 0.000000
										}
									}
								}
								JOINT LeftArmEnd
								{
									OFFSET 0.000000 0.000000 0.000000
									CHANNELS 3 Zrotation Yrotation Xrotation
									End Site
									{
										OFFSET 0.000000 0.000000 0.000000
									}
								}
							}
						}
					}
				}
			}
		}
	}
	JOINT RightUpLeg
	{
		OFFSET -11.289943 0.000000 0.000000
		CHANNELS 3 Zrotation Yrotation Xrotation
		JOINT RightLeg
		{
			OFFSET 0.000000 -38.200325 0.000000
			CHANNELS 3 Zrotation Yrotation Xrotation
			JOINT RightFoot
			{
				OFFSET -0.000000 -39.900856 -0.000000
				CHANNELS 3 Zrotation Yrotation Xrotation
				JOINT RightToeBase
				{
					OFFSET 0.000000 0.000000 15.261641
					CHANNELS 3 Zrotation Yrotation Xrotation
					JOINT RightToeBaseEnd
					{
						OFFSET 0.000000 0.000000 7.370709
						CHANNELS 3 Zrotation Yrotation Xrotation
						End Site
						{
							OFFSET 0.000000 0.000000 0.000000
						}
					}
				}
				JOINT RightLegEnd
				{
					OFFSET 0.000000 0.000000 0.000000
					CHANNELS 3 Zrotation Yrotation Xrotation
					End Site
					{
						OFFSET 0.000000 0.000000 0.000000
					}
				}
			}
			JOINT RightUpLegEnd
			{
				OFFSET 0.000000 0.000000 0.000000
				CHANNELS 3 Zrotation Yrotation Xrotation
				End Site
				{
					OFFSET 0.000000 0.000000 0.000000
				}
			}
		}
	}
	JOINT LeftUpLeg
	{
		OFFSET 11.315661 -0.000000 0.000000
		CHANNELS 3 Zrotation Yrotation Xrotation
		JOINT LeftLeg
		{
			OFFSET -0.000000 -38.200325 -0.000000
			CHANNELS 3 Zrotation Yrotation Xrotation
			JOINT LeftFoot
			{
				OFFSET 0.000000 -39.900856 -0.000000
				CHANNELS 3 Zrotation Yrotation Xrotation
				JOINT LeftToeBase
				{
					OFFSET -0.000000 -0.000000 15.261641
					CHANNELS 3 Zrotation Yrotation Xrotation
					JOINT LeftToeBaseEnd
					{
						OFFSET 0.000000 -0.000000 7.539996
						CHANNELS 3 Zrotation Yrotation Xrotation
						End Site
						{
							OFFSET 0.000000 0.000000 0.000000
						}
					}
				}
				JOINT LeftLegEnd
				{
					OFFSET 0.000000 0.000000 0.000000
					CHANNELS 3 Zrotation Yrotation Xrotation
					End Site
					{
						OFFSET 0.000000 0.000000 0.000000
					}
				}
			}
			JOINT LeftUpLegEnd
			{
				OFFSET 0.000000 0.000000 0.000000
				CHANNELS 3 Zrotation Yrotation Xrotation
				End Site
				{
					OFFSET 0.000000 0.000000 0.000000
				}
			}
		}
	}
}
MOTION
Frames: 4
Frame Time: 0.016667
0.619856 88.685745 2.807450 0.692252 -1.472752 -12.630879 1.119079 0.345481 7.376516 -0.415804 0.292671 1.781189 -0.422140 0.244251 7.198529 -1.992135 0.606194 5.075326 -4.032713 2.213876 8.064677 0.003594 0.724757 -1.738700 -0.724086 -1.498106 -20.990444 0.000000 0.000000 0.000000 90.876907 -0.371037 9.000172 61.166805 -8.808245 3.520864 -0.673374 18.118265 85.446541 9.605326 35.356491 7.338865 18.082600 30.649557 63.799046 -6.591371 -8.869766 -15.316838 -4.807096 -5.765900 -10.410949 0.000000 0.000000 0.000000 -2.691186 -8.565416 9.850333 2.429995 0.420995 0.951965 1.961750 -0.022250 0.950045 0.000000 0.000000 0.000000 -1.807599 -3.208364 5.155509 1.059602 0.468004 0.361110 1.943749 -0.026552 0.296621 0.000000 0.000000 0.000000 1.481125 4.212117 -0.814460 2.270181 -0.952888 -0.716967 2.297193 0.035983 -0.481946 0.000000 0.000000 0.000000 2.178564 12.309141 -7.824824 4.058139 -1.745617 -2.089672 3.809972 0.196123 -1.730598 0.000000 0.000000 0.000000 0.000000 0.000000 0.000000 0.000000 0.000000 0.000000 -88.989487 0.777090 3.396957 -68.317383 0.396817 -5.315396 -0.472109 -19.116186 99.698807 -39.573158 -39.814800 18.889559 -18.112364 -30.647186 63.755955 6.745250 8.702139 -15.277908 4.819746 5.907349 -10.728815 0.000000 0.000000 0.000000 -3.642100 -8.371719 13.012866 -2.828923 0.468517 -0.542431 -2.815738 -0.013281 -0.563233 0.000000 0.000000 0.000000 -5.052288 -2.698349 7.105537 -3.350160 0.479100 -0.292152 -3.757234 -0.009060 -0.262516 0.000000 0.000000 0.000000 -12.042251 6.361055 -0.692750 -7.197375 -0.927141 0.678891 -7.267416 0.056606 0.517318 0.000000 0.000000 0.000000 -21.027159 15.790491 -9.135127 -12.021457 -1.601228 2.722733 -11.457588 0.401352 2.372690 0.000000 0.000000 0.000000 0.000000 0.000000 0.000000 0.000000 0.000000 0.000000 -2.658111 -9.769602 16.081274 -0.099185 -0.785695 5.986333 -1.768839 -6.952755 16.562662 -1.060077 0.894499 -18.448206 0.000000 0.000000 0.000000 0.000000 0.000000 0.000000 0.000000 0.000000 0.000000 -2.125654 -5.886901 11.139129 0.073636 0.357342 11.329693 4.110845 -2.795006 16.069597 0.041817 -0.439985 -20.927610 0.000000 0.000000 0.000000 0.000000 0.000000 0.000000 0.000000 0.000000 0.000000 
0.611496 88.701126 2.775294 0.681583 -1.475024 -12.568312 1.104428 0.346354 7.368548 -0.384966 0.285259 1.797238 -0.455928 0.248820 7.147275 -1.979173 0.600151 5.055935 -4.105981 2.362969 8.085053 -0.012917 0.850415 -1.732480 -0.753221 -1.481053 -20.926435 0.000000 0.000000 0.000000 90.820580 -0.367837 9.069421 61.453762 -8.276926 3.612473 -0.675746 18.193138 85.816238 10.251584 36.185234 7.935253 18.104824 30.645626 63.787678 -6.607773 -8.904509 -15.364844 -4.818890 -5.788211 -10.446532 0.000000 0.000000 0.000000 -2.581089 -8.589974 9.805830 2.496653 0.419793 0.956865 2.016335 -0.023901 0.954982 0.000000 0.000000 0.000000 -1.707140 -3.226312 5.133155 1.122145 0.465924 0.364596 2.010241 -0.027732 0.298905 0.000000 0.000000 0.000000 1.620148 4.189284 -0.835853 2.317246 -0.951689 -0.723719 2.331203 0.037614 -0.486347 0.000000 0.000000 0.000000 2.360790 12.269706 -7.847559 4.095069 -1.742003 -2.113761 3.832056 0.200474 -1.751073 0.000000 0.000000 0.000000 0.000000 0.000000 0.000000 0.000000 0.000000 0.000000 -88.968979 0.762995 3.477879 -68.692162 0.126647 -5.090804 -0.482229 -19.059299 99.762497 -39.885303 -40.863693 19.881807 -18.099085 -30.650988 63.772503 6.733582 8.679844 -15.225500 4.808600 5.890550 -10.700211 0.000000 0.000000 0.000000 -3.601141 -8.374767 12.936635 -2.828099 0.468510 -0.551652 -2.812103 -0.013172 -0.570424 0.000000 0.000000 0.000000 -5.031397 -2.702591 7.054764 -3.328302 0.478952 -0.293495 -3.730150 -0.009379 -0.264491 0.000000 0.000000 0.000000 -11.954173 6.349015 -0.679801 -7.105759 -0.926502 0.679970 -7.169894 0.057156 0.518383 0.000000 0.000000 0.000000 -20.904541 15.776995 -9.051137 -11.905370 -1.602123 2.730345 -11.343030 0.401641 2.380742 0.000000 0.000000 0.000000 0.000000 0.000000 0.000000 0.000000 0.000000 0.000000 -2.647302 -9.772727 16.008303 -0.100159 -0.784691 6.008337 -1.765323 -6.966686 16.601969 -1.056141 0.893787 -18.476408 0.000000 0.000000 0.000000 0.000000 0.000000 0.000000 0.000000 0.000000 0.000000 -2.122187 -5.877225 11.039316 0.073970 0.357980 11.275557 4.134375 -2.809109 16.199774 0.039915 -0.436222 -20.971731 0.000000 0.000000 0.000000 0.000000 0.000000 0.000000 0.000000 0.000000 0.000000 
0.601592 88.714432 2.742404 0.668168 -1.476952 -12.505173 1.086987 0.348456 7.366034 -0.363015 0.279715 1.808705 -0.483859 0.255288 7.094799 -1.958943 0.594976 5.028103 -4.178293 2.503542 8.107116 -0.030574 0.965583 -1.724128 -0.781844 -1.464806 -20.861439 0.000000 0.000000 0.000000 90.779030 -0.359695 9.149492 61.735508 -7.833232 3.718381 -0.674743 18.253559 86.051910 10.789489 36.930172 8.427419 18.126007 30.641327 63.775917 -6.624454 -8.937594 -15.411534 -4.831024 -5.809966 -10.481746 0.000000 0.000000 0.000000 -2.453459 -8.614790 9.747050 2.564456 0.417681 0.961487 2.073046 -0.026171 0.959973 0.000000 0.000000 0.000000 -1.596717 -3.244893 5.107045 1.187608 0.463495 0.368135 2.078743 -0.029185 0.301282 0.000000 0.000000 0.000000 1.747464 4.167805 -0.848171 2.361746 -0.949884 -0.729436 2.366185 0.039357 -0.490326 0.000000 0.000000 0.000000 2.517784 12.234260 -7.842060 4.123914 -1.737057 -2.135232 3.847054 0.205906 -1.769261 0.000000 0.000000 0.000000 0.000000 0.000000 0.000000 0.000000 0.000000 0.000000 -88.949326 0.743719 3.575695 -69.021637 -0.005171 -4.871830 -0.488473 -18.957817 99.779739 -39.972397 -41.641705 20.619146 -18.084099 -30.654993 63.790207 6.719431 8.653368 -15.169028 4.796639 5.872166 -10.667367 0.000000 0.000000 0.000000 -3.588568 -8.368943 12.864437 -2.838190 0.468360 -0.558193 -2.819117 -0.013091 -0.575685 0.000000 0.000000 0.000000 -5.025758 -2.701421 7.009669 -3.315588 0.478838 -0.294032 -3.710238 -0.009660 -0.265793 0.000000 0.000000 0.000000 -11.859156 6.336273 -0.655429 -7.013974 -0.925481 0.679881 -7.073221 0.057911 0.518447 0.000000 0.000000 0.000000 -20.751373 15.757441 -8.944291 -11.770283 -1.602230 2.731573 -11.214214 0.401642 2.383376 0.000000 0.000000 0.000000 0.000000 0.000000 0.000000 0.000000 0.000000 0.000000 -2.638280 -9.778101 15.933478 -0.100914 -0.783025 6.032489 -1.758746 -6.979276 16.637695 -1.050582 0.893767 -18.501076 0.000000 0.000000 0.000000 0.000000 0.000000 0.000000 0.000000 0.000000 0.000000 -2.118126 -5.876802 10.926069 0.074734 0.360042 11.241114 4.157208 -2.829238 16.316000 0.039412 -0.434359 -21.015106 0.000000 0.000000 0.000000 0.000000 0.000000 0.000000 0.000000 0.000000 0.000000 
0.590640 88.725372 2.710248 0.651561 -1.481126 -12.443659 1.070037 0.350246 7.368719 -0.350739 0.275666 1.815410 -0.501812 0.258758 7.044026 -1.933564 0.589234 4.996371 -4.251710 2.634059 8.134048 -0.047866 1.069867 -1.710771 -0.808982 -1.450191 -20.798746 0.000000 0.000000 0.000000 90.752846 -0.347881 9.234128 61.998852 -7.472362 3.843863 -0.669857 18.295626 86.195274 11.210282 37.604801 8.802994 18.144997 30.637142 63.765816 -6.639442 -8.965816 -15.451927 -4.842135 -5.829228 -10.513204 0.000000 0.000000 0.000000 -2.324065 -8.638153 9.677044 2.625083 0.414943 0.966804 2.123411 -0.028837 0.965789 0.000000 0.000000 0.000000 -1.488838 -3.262504 5.080108 1.248319 0.460892 0.371954 2.141601 -0.030797 0.304037 0.000000 0.000000 0.000000 1.859155 4.148959 -0.849531 2.401503 -0.947648 -0.734534 2.399507 0.041163 -0.494261 0.000000 0.000000 0.000000 2.651758 12.203663 -7.810302 4.146899 -1.731567 -2.154880 3.857064 0.211856 -1.785905 0.000000 0.000000 0.000000 0.000000 0.000000 0.000000 0.000000 0.000000 0.000000 -88.933136 0.720711 3.681985 -69.293335 -0.012142 -4.666359 -0.493873 -18.823250 99.728119 -39.868725 -42.216442 21.104956 -18.068264 -30.659105 63.808674 6.703464 8.623635 -15.109904 4.784316 5.852717 -10.631719 0.000000 0.000000 0.000000 -3.593907 -8.357456 12.794241 -2.853767 0.468199 -0.562873 -2.831761 -0.012905 -0.579899 0.000000 0.000000 0.000000 -5.029555 -2.696515 6.969190 -3.309311 0.478821 -0.294112 -3.694522 -0.009866 -0.266700 0.000000 0.000000 0.000000 -11.766623 6.324278 -0.620782 -6.927327 -0.924210 0.679339 -6.981947 0.058827 0.518137 0.000000 0.000000 0.000000 -20.590935 15.735315 -8.818743 -11.629795 -1.601716 2.729140 -11.083707 0.401464 2.383118 0.000000 0.000000 0.000000 0.000000 0.000000 0.000000 0.000000 0.000000 0.000000 -2.630122 -9.786174 15.858130 -0.101455 -0.780828 6.058389 -1.749922 -6.993299 16.670061 -1.044145 0.894684 -18.522892 0.000000 0.000000 0.000000 0.000000 0.000000 0.000000 0.000000 0.000000 0.000000 -2.111936 -5.887052 10.806094 0.075835 0.362997 11.226320 4.177550 -2.856154 16.414255 0.039505 -0.434025 -21.056717 0.000000 0.000000 0.000000 0.000000 0.000000 0.000000 0.000000 0.000000 0.000000 
